nColumns=19
nRows=96
DataType=double
version=3
OpenSimVersion=4.1
endheader
time	ground_force_1_vx	ground_force_1_vy	ground_force_1_vz	ground_force_1_px	ground_force_1_py	ground_force_1_pz	ground_force_1_mx	ground_force_1_my	ground_force_1_mz	ground_force_2_vx	ground_force_2_vy	ground_force_2_vz	ground_force_2_px	ground_force_2_py	ground_force_2_pz	ground_force_2_mx	ground_force_2_my	ground_force_2_mz
0	0	0	0	0.270459	0	-0.246355	0	0	0	-71.148	50.9283	-54.4327	1.15644	0	-0.521194	0	-41.4953	0
0.005	0	0	0	0.294098	0	-0.24505	0	0	0	-89.9513	230.501	-13.2478	1.05096	0	-0.466773	0	-9.54987	0
0.01	0	0	0	0.318076	0	-0.244317	0	0	0	-136.793	525.015	37.9975	1.02171	0	-0.444656	0	9.61609	0
0.015	0	0	0	0.342773	0	-0.243764	0	0	0	-197.869	920.136	108.037	1.00251	0	-0.427572	0	21.0553	0
0.02	0	0	0	0.367999	0	-0.242376	0	0	0	-241.288	1367.81	197.444	0.9858	0	-0.412882	0	23.4982	0
0.025	0	0	0	0.393514	0	-0.24058	0	0	0	-252.529	1839.8	282.426	0.969743	0	-0.400448	0	10.3635	0
0.03	0	0	0	0.419117	0	-0.2393	0	0	0	-263.49	2319.1	330.584	0.950934	0	-0.388877	0	-20.3962	0
0.035	0	0	0	0.444392	0	-0.238542	0	0	0	-294.45	2753.33	306.291	0.935098	0	-0.378789	0	-52.932	0
0.04	0	0	0	0.469629	0	-0.238072	0	0	0	-332.307	3076.02	192.606	0.927661	0	-0.371174	0	-69.02	0
0.045	0	0	0	0.494679	0	-0.236739	0	0	0	-372.336	3262.07	11.6734	0.922496	0	-0.366658	0	-63.0422	0
0.05	0	0	0	0.518876	0	-0.235885	0	0	0	-395.13	3324.61	-175.423	0.911272	0	-0.364911	0	-35.8221	0
0.055	0	0	0	0.544275	0	-0.235495	0	0	0	-367.148	3297.2	-302.382	0.889669	0	-0.36507	0	1.72707	0
0.06	0	0	0	0.570366	0	-0.235621	0	0	0	-279.353	3217.47	-329.308	0.855996	0	-0.365832	0	30.7343	0
0.065	0	0	0	0.598227	0	-0.23578	0	0	0	-149.111	3112.14	-262.283	0.814708	0	-0.365949	0	36.4303	0
0.07	0	0	0	0.628277	0	-0.236338	0	0	0	-7.07124	2993.14	-150.671	0.774934	0	-0.364897	0	19.0558	0
0.075	0	0	0	0.660304	0	-0.238725	0	0	0	122.303	2851.77	-52.1287	0.740887	0	-0.363342	0	-8.04485	0
0.08	0	0	0	0.69575	0	-0.237373	0	0	0	233.956	2672.28	2.2861	0.711723	0	-0.362015	0	-29.1693	0
0.085	0	0	0	0.733038	0	-0.237456	0	0	0	337.649	2446.51	18.8453	0.684883	0	-0.361021	0	-35.3247	0
0.09	0	0	0	0.772485	0	-0.237925	0	0	0	433.603	2167.06	22.2616	0.653496	0	-0.360442	0	-30.2912	0
0.095	0	0	0	0.814006	0	-0.238154	0	0	0	509.503	1819.76	29.4957	0.606187	0	-0.36135	0	-26.0066	0
0.1	0	0	0	0.857376	0	-0.23856	0	0	0	554.489	1407.92	41.9567	0.529457	0	-0.365286	0	-31.1291	0
0.105	0	0	0	0.902067	0	-0.238098	0	0	0	554.372	974.24	47.7762	0.404972	0	-0.373933	0	-43.0545	0
0.11	0	0	0	0.947099	0	-0.23733	0	0	0	502.188	578.428	27.6866	0.205271	0	-0.390956	0	-38.8818	0
0.115	0	0	0	0.992921	0	-0.236227	0	0	0	409.281	272.06	-26.361	-0.095164	0	-0.42325	0	20.8327	0
0.12	0	0	0	1.03775	0	-0.235626	0	0	0	297.619	76.9335	-99.4844	0.199956	0	-0.390004	0	158.308	0
0.125	0	0	0	1.08165	0	-0.235146	0	0	0	0	0	0	0.317081	0	-0.375303	0	0	0
0.13	0	0	0	1.12326	0	-0.236551	0	0	0	0	0	0	0.291764	0	-0.377178	0	0	0
0.135	0	0	0	1.16284	0	-0.238678	0	0	0	0	0	0	0.268348	0	-0.378844	0	0	0
0.14	0	0	0	1.20016	0	-0.241741	0	0	0	0	0	0	0.24934	0	-0.378704	0	0	0
0.145	0	0	0	1.23548	0	-0.245684	0	0	0	0	0	0	0.231517	0	-0.374482	0	0	0
0.15	0	0	0	1.26839	0	-0.249865	0	0	0	0	0	0	0.212397	0	-0.371987	0	0	0
0.155	0	0	0	1.29854	0	-0.254413	0	0	0	0	0	0	0.196675	0	-0.368898	0	0	0
0.16	0	0	0	1.32617	0	-0.259312	0	0	0	0	0	0	0.184679	0	-0.365474	0	0	0
0.165	0	0	0	1.35107	0	-0.264258	0	0	0	0	0	0	0.173981	0	-0.361643	0	0	0
0.17	0	0	0	1.37236	0	-0.268947	0	0	0	0	0	0	0.16348	0	-0.358196	0	0	0
0.175	0	0	0	1.39007	0	-0.272786	0	0	0	0	0	0	0.154983	0	-0.355183	0	0	0
0.18	0	0	0	1.40385	0	-0.27635	0	0	0	0	0	0	0.150736	0	-0.35254	0	0	0
0.185	0	0	0	1.41328	0	-0.278927	0	0	0	0	0	0	0.149832	0	-0.350997	0	0	0
0.19	0	0	0	1.41881	0	-0.281219	0	0	0	0	0	0	0.152269	0	-0.35077	0	0	0
0.195	0	0	0	1.42033	0	-0.282992	0	0	0	0	0	0	0.157921	0	-0.349499	0	0	0
0.2	0	0	0	1.41835	0	-0.284025	0	0	0	0	0	0	0.166118	0	-0.350071	0	0	0
0.205	0	0	0	1.41243	0	-0.284271	0	0	0	0	0	0	0.176621	0	-0.351337	0	0	0
0.21	0	0	0	1.40235	0	-0.28417	0	0	0	0	0	0	0.187869	0	-0.35389	0	0	0
0.215	0	0	0	1.38853	0	-0.284101	0	0	0	0	0	0	0.201566	0	-0.356407	0	0	0
0.22	0	0	0	1.37113	0	-0.284544	0	0	0	0	0	0	0.217098	0	-0.359155	0	0	0
0.225	0	0	0	1.3509	0	-0.285265	0	0	0	0	0	0	0.234456	0	-0.362381	0	0	0
0.23	0	0	0	1.32781	0	-0.286144	0	0	0	0	0	0	0.25345	0	-0.365073	0	0	0
0.235	0	0	0	1.30234	0	-0.287231	0	0	0	0	0	0	0.274108	0	-0.369664	0	0	0
0.24	0	0	0	1.27423	0	-0.288475	0	0	0	0	0	0	0.295483	0	-0.372742	0	0	0
0.245	0	0	0	1.24415	0	-0.289594	0	0	0	0	0	0	0.317919	0	-0.377166	0	0	0
0.25	-94.8678	105.364	10.581	1.18316	-0	-0.287786	0	1.19872	0	0	0	0	0.34104	0	-0.381681	0	0	0
0.255	-169.314	318.221	-25.4855	1.04166	0	-0.281924	0	-2.86084	0	0	0	0	0.365425	0	-0.386412	0	0	0
0.26	-261.937	639.841	-89.9029	1.00984	0	-0.293197	0	-3.63125	0	0	0	0	0.389935	0	-0.390419	0	0	0
0.265	-346.652	1042.31	-179.06	0.989913	0	-0.301412	0	-3.84145	0	0	0	0	0.41495	0	-0.393823	0	0	0
0.27	-387.533	1497.48	-271.083	0.973646	0	-0.308702	0	0.166682	0	0	0	0	0.440403	0	-0.399207	0	0	0
0.275	-384.597	1995.3	-327.953	0.956806	0	-0.314144	0	17.1508	0	0	0	0	0.466469	0	-0.40342	0	0	0
0.28	-374.73	2501.09	-314.22	0.941142	0	-0.317144	0	41.3847	0	0	0	0	0.493112	0	-0.406908	0	0	0
0.285	-386.731	2942.3	-217.286	0.930929	0	-0.318242	0	55.6822	0	0	0	0	0.520684	0	-0.411157	0	0	0
0.29	-421.57	3254.61	-48.6741	0.923916	0	-0.318395	0	52.8399	0	0	0	0	0.549272	0	-0.415709	0	0	0
0.295	-453.058	3421.22	163.102	0.914449	0	-0.318187	0	36.5496	0	0	0	0	0.578903	0	-0.418491	0	0	0
0.3	-448.011	3456.41	370.183	0.897532	0	-0.318165	0	13.3602	0	0	0	0	0.609332	0	-0.420072	0	0	0
0.305	-389.641	3383.49	516.844	0.869896	0	-0.31888	0	-12.8174	0	0	0	0	0.641151	0	-0.421202	0	0	0
0.31	-277.389	3239.91	564.929	0.832333	0	-0.320631	0	-36.7398	0	0	0	0	0.674879	0	-0.421761	0	0	0
0.315	-125.826	3074.12	517.843	0.791182	0	-0.323066	0	-44.8309	0	0	0	0	0.710193	0	-0.421184	0	0	0
0.32	39.5584	2905.64	419.085	0.75467	0	-0.32492	0	-29.1198	0	0	0	0	0.749613	0	-0.420598	0	0	0
0.325	192.171	2710.83	312.293	0.725031	0	-0.325759	0	0.05935	0	0	0	0	0.787266	0	-0.419294	0	0	0
0.33	319.485	2462.04	216.863	0.697947	0	-0.32589	0	27.9224	0	0	0	0	0.828061	0	-0.416894	0	0	0
0.335	427.013	2154.67	133.53	0.667522	0	-0.325947	0	48.7152	0	0	0	0	0.870064	0	-0.414112	0	0	0
0.34	517.535	1794.9	64.8146	0.62472	0	-0.326444	0	62.2538	0	0	0	0	0.913137	0	-0.411059	0	0	0
0.345	578.062	1389.24	14.9842	0.553307	0	-0.328787	0	72.2535	0	0	0	0	0.956539	0	-0.408374	0	0	0
0.35	592.661	960.71	-9.08998	0.422842	0	-0.335485	0	80.3039	0	0	0	0	1.00013	0	-0.405598	0	0	0
0.355	555.25	564.047	-2.20167	0.169689	0	-0.350486	0	77.8017	0	0	0	0	1.04295	0	-0.403483	0	0	0
0.36	472.336	259.474	32.8715	-0.368562	0	-0.38126	0	32.5179	0	0	0	0	1.0844	0	-0.402725	0	0	0
0.365	356.065	68.4846	80.5946	0.174403	0	-0.324285	0	-155.271	0	0	0	0	1.12525	0	-0.403047	0	0	0
0.37	0	0	0	0.289511	0	-0.307791	0	0	0	0	0	0	1.16456	0	-0.402926	0	0	0
0.375	0	0	0	0.260697	0	-0.303608	0	0	0	0	0	0	1.20248	0	-0.402101	0	0	0
0.38	0	0	0	0.234459	0	-0.297648	0	0	0	0	0	0	1.23928	0	-0.400829	0	0	0
0.385	0	0	0	0.209988	0	-0.29302	0	0	0	0	0	0	1.27475	0	-0.399143	0	0	0
0.39	0	0	0	0.184127	0	-0.289046	0	0	0	0	0	0	1.30884	0	-0.397569	0	0	0
0.395	0	0	0	0.163471	0	-0.284938	0	0	0	0	0	0	1.3411	0	-0.396195	0	0	0
0.4	0	0	0	0.146522	0	-0.278723	0	0	0	0	0	0	1.37101	0	-0.394881	0	0	0
0.405	0	0	0	0.133624	0	-0.27149	0	0	0	0	0	0	1.39789	0	-0.394074	0	0	0
0.41	0	0	0	0.120665	0	-0.266412	0	0	0	0	0	0	1.42112	0	-0.393505	0	0	0
0.415	0	0	0	0.107349	0	-0.261651	0	0	0	0	0	0	1.43997	0	-0.393461	0	0	0
0.42	0	0	0	0.096998	0	-0.257648	0	0	0	0	0	0	1.45365	0	-0.393695	0	0	0
0.425	0	0	0	0.08882	0	-0.252814	0	0	0	0	0	0	1.46174	0	-0.394435	0	0	0
0.43	0	0	0	0.084092	0	-0.249163	0	0	0	0	0	0	1.46517	0	-0.395299	0	0	0
0.435	0	0	0	0.083812	0	-0.245996	0	0	0	0	0	0	1.46522	0	-0.397407	0	0	0
0.44	0	0	0	0.087742	0	-0.243639	0	0	0	0	0	0	1.46145	0	-0.398639	0	0	0
0.445	0	0	0	0.094982	0	-0.242056	0	0	0	0	0	0	1.45414	0	-0.400184	0	0	0
0.45	0	0	0	0.105433	0	-0.241245	0	0	0	0	0	0	1.44357	0	-0.402381	0	0	0
0.455	0	0	0	0.118918	0	-0.240293	0	0	0	0	0	0	1.43022	0	-0.405203	0	0	0
0.46	0	0	0	0.134427	0	-0.239479	0	0	0	0	0	0	1.41365	0	-0.406221	0	0	0
0.465	0	0	0	0.147552	0	-0.241099	0	0	0	0	0	0	1.39429	0	-0.405473	0	0	0
0.47	0	0	0	0.170682	0	-0.238896	0	0	0	0	0	0	1.37212	0	-0.402978	0	0	0
0.475	0	0	0	0.190918	0	-0.237967	0	0	0	0	0	0	1.34792	0	-0.399512	0	0	0
